<svg xmlns="http://www.w3.org/2000/svg" width="19.998" height="20" viewBox="0 0 19.998 20"><defs><style>.a{fill:#fff;}</style></defs><g transform="translate(0 0.003)"><g transform="translate(0 6.249)"><rect class="a" width="4.472" height="13.748"/></g><g transform="translate(6.249 6.249)"><path class="a" d="M170.4,160.161c-.047-.015-.092-.031-.142-.045s-.12-.025-.181-.035a4.009,4.009,0,0,0-.8-.081,6.213,6.213,0,0,0-4.806,2.628V160H160v13.748h4.472v-7.5s3.38-4.707,4.806-1.25v8.749h4.471v-9.278A4.459,4.459,0,0,0,170.4,160.161Z" transform="translate(-160 -160)"/></g><g transform="translate(0 -0.003)"><circle class="a" cx="2" cy="2" r="2" transform="translate(0 0)"/></g></g></svg>