<svg xmlns="http://www.w3.org/2000/svg" width="24.905" height="19.019" viewBox="0 0 24.905 19.019"><defs><style>.a{fill:#fff;}</style></defs><g transform="translate(0 -60.5)"><g transform="translate(0 60.5)"><path class="a" d="M23.932,71.736a.973.973,0,0,0,.973-.973V64.391A3.9,3.9,0,0,0,21.014,60.5H3.891A3.9,3.9,0,0,0,0,64.391V75.628a3.9,3.9,0,0,0,3.891,3.891H21.014A3.9,3.9,0,0,0,24.9,75.628a.973.973,0,0,0-1.946,0,1.948,1.948,0,0,1-1.946,1.946H3.891a1.948,1.948,0,0,1-1.946-1.946V64.6L10.4,69.853a3.867,3.867,0,0,0,4.11,0L22.959,64.6v6.166A.973.973,0,0,0,23.932,71.736ZM13.48,68.2a1.934,1.934,0,0,1-2.055,0l-8.668-5.39a1.935,1.935,0,0,1,1.134-.365H21.014a1.935,1.935,0,0,1,1.134.365Z" transform="translate(0 -60.5)"/></g></g></svg>