<svg xmlns="http://www.w3.org/2000/svg" width="19.994" height="19.994" viewBox="0 0 19.994 19.994"><defs><style>.a{fill:#fff;}</style></defs><g transform="translate(0 -0.001)"><g transform="translate(0 0.001)"><g transform="translate(0)"><path class="a" d="M248.781,22.652h.039a7.09,7.09,0,0,1,7.1,7.139.781.781,0,0,0,.777.785h0a.781.781,0,0,0,.781-.777,8.652,8.652,0,0,0-8.666-8.709h-.043a.781.781,0,0,0,0,1.562Z" transform="translate(-238.315 -20.266)"/><path class="a" d="M19.992,16.111a2.958,2.958,0,0,0-.907-2.032,7.264,7.264,0,0,0-2.876-1.911,3.219,3.219,0,0,0-3.305.938l0,0L11.843,14.16a15.725,15.725,0,0,1-3.328-2.576l-.1-.1A15.824,15.824,0,0,1,5.836,8.152L6.884,7.1l0,0a3.219,3.219,0,0,0,.938-3.305A7.264,7.264,0,0,0,5.916.91,2.972,2.972,0,0,0,1.791.761l-.022.02L1.738.81A6.337,6.337,0,0,0,0,5.452c.016,3.211,1.781,6.883,4.72,9.822l.007.007A19.06,19.06,0,0,0,6.593,16.9a.781.781,0,0,0,.95-1.24,17.464,17.464,0,0,1-1.718-1.5l-.007-.007C3.167,11.508,1.576,8.25,1.562,5.444A4.825,4.825,0,0,1,2.829,1.929l.006-.005a1.4,1.4,0,0,1,1.957.071c2.022,2.1,1.876,3.087.982,4L4.326,7.456a.781.781,0,0,0-.159.868,15.781,15.781,0,0,0,3.14,4.262l.1.1a15.781,15.781,0,0,0,4.261,3.14.781.781,0,0,0,.868-.159L14,14.222c.916-.894,1.906-1.04,4,.982a1.4,1.4,0,0,1,.071,1.957l-.006.006a4.811,4.811,0,0,1-3.48,1.267h-.036A10.127,10.127,0,0,1,10.7,17.52a.781.781,0,0,0-.619,1.434,11.522,11.522,0,0,0,4.465,1.04h.044a6.323,6.323,0,0,0,4.6-1.738l.029-.03.02-.023A2.958,2.958,0,0,0,19.992,16.111Z" transform="translate(0 -0.001)"/><path class="a" d="M295.2,113.132a4.293,4.293,0,0,0-2.028-1.167.781.781,0,0,0-.416,1.506,2.732,2.732,0,0,1,1.34.766,2.792,2.792,0,0,1,.758,1.315l.011.038a.781.781,0,1,0,1.5-.443l-.011-.036A4.3,4.3,0,0,0,295.2,113.132Z" transform="translate(-280.772 -107.565)"/></g></g></g></svg>